<svg width="24" height="24" viewBox="0 0 24 24" fill="none" xmlns="http://www.w3.org/2000/svg">
<g clip-path="url(#clip0_3721_5439)">
<path d="M24 10.5469C24 14.1038 22.2248 17.3977 19.2516 19.358L4.64203 4.7485C6.60234 1.77522 9.89625 6.10352e-05 13.4531 6.10352e-05C19.283 6.10352e-05 24 4.71803 24 10.5469Z" fill="#76E2F8"/>
<path d="M24 10.5469C24 14.1038 22.2248 17.3977 19.2516 19.358L13.4531 13.5596V6.10352e-05C19.283 6.10352e-05 24 4.71803 24 10.5469Z" fill="#4BB9EC"/>
<path d="M15.5164 8.48369L17.5312 7.8985L18.0063 5.99373C16.0982 4.08564 13.4614 2.90631 10.5469 2.90631L10.0312 4.61725L10.5469 6.42194C12.4854 6.42194 14.2432 7.21047 15.5164 8.48369Z" fill="#F30051"/>
<path d="M3.51562 13.4532C3.51562 11.5147 4.30416 9.75684 5.57737 8.48367L4.38281 6.51567L3.08742 5.99371C1.17933 7.90185 0 10.5386 0 13.4532L1.80469 13.875L3.51562 13.4532Z" fill="#FF4949"/>
<path d="M21.0937 13.4532L19.4531 13.0547L17.5781 13.4532C17.5781 15.3917 16.7895 17.1495 15.5164 18.4227L16.5234 20.3907L18.0063 20.9126C19.9144 19.0045 21.0937 16.3677 21.0937 13.4532Z" fill="#F30051"/>
<path d="M5.57736 18.4227L4.05467 19.0524L3.0874 20.9126C4.99554 22.8207 7.63231 24 10.5469 24L11.1562 22.1954L10.5469 20.4844C8.60834 20.4844 6.85053 19.6959 5.57736 18.4227Z" fill="#FF4949"/>
<path d="M10.5469 6.42194V2.90631C7.63207 2.90631 4.9954 4.08573 3.0874 5.99373L5.57731 8.48364C6.85053 7.21051 8.60834 6.42194 10.5469 6.42194Z" fill="#575F64"/>
<path d="M3.51562 13.4532H0C0 16.368 1.17942 19.0046 3.08742 20.9126L5.57733 18.4227C4.30416 17.1495 3.51562 15.3917 3.51562 13.4532Z" fill="#575F64"/>
<path d="M10.5469 5.71881C6.28219 5.71881 2.8125 9.1885 2.8125 13.4532C2.8125 17.7179 6.28219 21.1876 10.5469 21.1876C14.8116 21.1876 18.2812 17.7179 18.2812 13.4532C18.2812 9.1885 14.8116 5.71881 10.5469 5.71881Z" fill="#575F64"/>
<path d="M17.5781 13.4532H21.0937C21.0937 10.5384 19.9143 7.90171 18.0063 5.99371L15.5164 8.48362C16.7896 9.75684 17.5781 11.5147 17.5781 13.4532Z" fill="#474F54"/>
<path d="M10.5469 20.4844V24.0001C13.4617 24.0001 16.0983 22.8206 18.0063 20.9126L15.5164 18.4227C14.2432 19.6959 12.4854 20.4844 10.5469 20.4844Z" fill="#474F54"/>
<path d="M18.2812 13.4532C18.2812 17.7179 14.8116 21.1876 10.5469 21.1876V5.71881C14.8116 5.71881 18.2812 9.1885 18.2812 13.4532Z" fill="#474F54"/>
<path d="M10.5469 19.7813C14.0418 19.7813 16.875 16.9481 16.875 13.4532C16.875 9.95826 14.0418 7.12506 10.5469 7.12506C7.05195 7.12506 4.21875 9.95826 4.21875 13.4532C4.21875 16.9481 7.05195 19.7813 10.5469 19.7813Z" fill="#F5FAFF"/>
<path d="M16.875 13.4532C16.875 16.9426 14.0363 19.7813 10.5469 19.7813V7.12506C14.0363 7.12506 16.875 9.96381 16.875 13.4532Z" fill="#DFE9EE"/>
<path d="M11.25 15.7327V16.9688H12.6562V18.375H8.43747V16.9688H9.84372V15.7327C9.52591 15.8968 9.17482 15.9844 8.80263 15.9844C7.43013 15.9844 6.35529 14.844 6.35529 13.388C6.35529 11.8594 7.54357 10.8563 9.18794 9.46833C10.0922 8.70521 10.0847 8.70146 10.5468 8.30396C10.9931 8.68833 11.002 8.70567 11.9058 9.46833C13.3847 10.7166 14.7384 11.7825 14.7384 13.388C14.7384 14.844 13.6636 15.9844 12.2911 15.9844C11.9189 15.9844 11.5678 15.8968 11.25 15.7327Z" fill="#575F64"/>
<path d="M11.25 15.7327V16.9688H12.6562V18.375H10.5469V8.30396C10.9931 8.68833 11.002 8.70567 11.9058 9.46833C13.3847 10.7166 14.7384 11.7825 14.7384 13.388C14.7384 14.844 13.6636 15.9844 12.2911 15.9844C11.9189 15.9844 11.5678 15.8968 11.25 15.7327Z" fill="#474F54"/>
</g>
<defs>
<clipPath id="clip0_3721_5439">
<rect width="24" height="24" fill="white"/>
</clipPath>
</defs>
</svg>
