<svg width="49" height="48" viewBox="0 0 49 48" fill="none" xmlns="http://www.w3.org/2000/svg">
<path d="M35.2378 25.7086C35.1914 20.5518 39.4602 18.043 39.6554 17.9262C37.2378 14.4014 33.4906 13.9198 32.1738 13.8814C29.0266 13.5502 25.9738 15.7646 24.3706 15.7646C22.7354 15.7646 20.2666 13.9134 17.6058 13.9678C14.1818 14.0206 10.9786 16.003 9.22175 19.0814C5.59615 25.3582 8.30015 34.5822 11.7738 39.6558C13.5114 42.1406 15.5418 44.915 18.1994 44.8174C20.7994 44.7102 21.7706 43.1598 24.9082 43.1598C28.017 43.1598 28.929 44.8174 31.6394 44.755C34.4298 44.7102 36.1866 42.259 37.8634 39.7518C39.8714 36.9038 40.6778 34.099 40.7098 33.955C40.6442 33.9326 35.2906 31.8894 35.2378 25.7086Z" fill="#05213E"/>
<path d="M30.1175 10.5424C31.5159 8.7936 32.4727 6.4144 32.2071 4C30.1831 4.0896 27.6519 5.4 26.1943 7.1104C24.9047 8.6176 23.7527 11.088 24.0503 13.4112C26.3239 13.5808 28.6583 12.264 30.1175 10.5424Z" fill="#05213E"/>
</svg>
