<svg width="48" height="48" viewBox="0 0 48 48" fill="none" xmlns="http://www.w3.org/2000/svg">
<circle cx="24" cy="24" r="24" fill="white"/>
<path d="M0 24C0 28.7467 1.40758 33.3869 4.04473 37.3337C6.68188 41.2805 10.4302 44.3566 14.8156 46.1731C19.201 47.9896 24.0266 48.4649 28.6822 47.5388C33.3377 46.6128 37.6141 44.327 40.9706 40.9706C44.327 37.6141 46.6128 33.3377 47.5388 28.6822C48.4649 24.0266 47.9896 19.201 46.1731 14.8156C44.3566 10.4302 41.2805 6.68188 37.3337 4.04473C33.3869 1.40758 28.7467 0 24 0C17.6348 0 11.5303 2.52856 7.02944 7.02944C2.52856 11.5303 0 17.6348 0 24ZM30 36C30.5304 36 31.0391 36.2107 31.4142 36.5858C31.7893 36.9609 32 37.4696 32 38C32 38.5304 31.7893 39.0391 31.4142 39.4142C31.0391 39.7893 30.5304 40 30 40H18C17.4696 40 16.9609 39.7893 16.5858 39.4142C16.2107 39.0391 16 38.5304 16 38C16 37.4696 16.2107 36.9609 16.5858 36.5858C16.9609 36.2107 17.4696 36 18 36H30ZM25.42 8.58L31.42 14.58C31.6074 14.7659 31.7562 14.9871 31.8578 15.2308C31.9593 15.4746 32.0116 15.736 32.0116 16C32.0116 16.264 31.9593 16.5254 31.8578 16.7691C31.7562 17.0129 31.6074 17.2341 31.42 17.42C31.2341 17.6075 31.0129 17.7562 30.7691 17.8578C30.5254 17.9593 30.264 18.0116 30 18.0116C29.736 18.0116 29.4746 17.9593 29.2308 17.8578C28.9871 17.7562 28.7659 17.6075 28.58 17.42L26 14.82L26 30C26 30.5304 25.7893 31.0391 25.4142 31.4142C25.0391 31.7893 24.5304 32 24 32C23.4696 32 22.9609 31.7893 22.5858 31.4142C22.2107 31.0391 22 30.5304 22 30L22 14.82L19.42 17.42C19.2335 17.6065 19.0121 17.7544 18.7685 17.8553C18.5249 17.9562 18.2637 18.0082 18 18.0082C17.4674 18.0082 16.9566 17.7966 16.58 17.42C16.2034 17.0434 15.9918 16.5326 15.9918 16C15.9918 15.7363 16.0438 15.4751 16.1447 15.2315C16.2456 14.9879 16.3935 14.7665 16.58 14.58L22.58 8.58C22.7659 8.39254 22.9871 8.24375 23.2308 8.14221C23.4746 8.04068 23.736 7.9884 24 7.9884C24.264 7.9884 24.5254 8.04068 24.7691 8.14221C25.0129 8.24375 25.2341 8.39254 25.42 8.58Z" fill="#6953A3"/>
</svg>
